<?xml version="1.0" encoding="utf-8"?>
<!-- Uploaded to: SVG Repo, www.svgrepo.com, Generator: SVG Repo Mixer Tools -->
<svg fill="#000000" width="800px" height="800px" viewBox="0 0 24 24" id="note-remove" data-name="Flat Color"
    xmlns="http://www.w3.org/2000/svg" class="icon flat-color">
    <rect id="primary" x="4" y="3" width="16" height="19" rx="2" style="fill: #b7e3f6;"></rect>
    <path id="secondary"
        d="M16,3V5a1,1,0,0,1-1,1H9A1,1,0,0,1,8,5V3A1,1,0,0,1,9,2h6A1,1,0,0,1,16,3ZM13.41,13l1.3-1.29a1,1,0,0,0-1.42-1.42L12,11.59l-1.29-1.3a1,1,0,0,0-1.42,1.42L10.59,13l-1.3,1.29a1,1,0,0,0,0,1.42,1,1,0,0,0,1.42,0L12,14.41l1.29,1.3a1,1,0,0,0,1.42,0,1,1,0,0,0,0-1.42Z"
        style="fill: #36b1e7;"></path>
</svg>