<?xml version="1.0" encoding="utf-8"?>
<!-- Generator: Adobe Illustrator 15.1.0, SVG Export Plug-In . SVG Version: 6.00 Build 0)  -->
<!DOCTYPE svg PUBLIC "-//W3C//DTD SVG 1.1//EN" "http://www.w3.org/Graphics/SVG/1.1/DTD/svg11.dtd">
<svg version="1.1" id="logo" xmlns="http://www.w3.org/2000/svg" xmlns:xlink="http://www.w3.org/1999/xlink" x="0px" y="0px"
	 width="351.75px" height="135.25px" viewBox="0 0 351.75 135.25" enable-background="new 0 0 351.75 135.25" xml:space="preserve">
<g id="typo">
	<g>
		<path fill="#1B2240" d="M133.462,55.686h7.207c2.801,0,5.165,0.489,7.093,1.468s3.381,2.405,4.359,4.28s1.468,4.16,1.468,6.855
			c0,2.578-0.501,4.781-1.503,6.609s-2.47,3.223-4.403,4.184s-4.283,1.441-7.049,1.441h-7.172V55.686z M140.194,76.428
			c2.895,0,5.106-0.645,6.636-1.934s2.294-3.422,2.294-6.398c0-1.98-0.287-3.577-0.861-4.79s-1.482-2.104-2.725-2.672
			s-2.889-0.853-4.939-0.853h-2.672v16.646H140.194z"/>
		<path fill="#1B2240" d="M158.193,59.641v-3.955h4.5v3.955H158.193z M158.299,80.523V62.963h4.254v17.561H158.299z"/>
		<path fill="#1B2240" d="M179.911,78.511c0.955,0.299,1.749,0.803,2.382,1.512s0.949,1.69,0.949,2.944
			c0,1.277-0.337,2.358-1.011,3.243s-1.597,1.544-2.769,1.978s-2.502,0.65-3.99,0.65c-1.688,0-3.149-0.267-4.386-0.8
			s-2.183-1.274-2.839-2.224s-0.984-2.027-0.984-3.234c0-0.27,0.023-0.521,0.07-0.756l1.828-1.652
			c-1.148-0.773-1.723-1.928-1.723-3.463c0-0.762,0.138-1.438,0.413-2.03s0.683-1.122,1.222-1.591
			c-0.469-0.563-0.829-1.187-1.081-1.872s-0.378-1.409-0.378-2.171c0-1.23,0.325-2.326,0.976-3.287s1.526-1.705,2.628-2.232
			s2.303-0.791,3.604-0.791c1.512,0,2.877,0.346,4.096,1.037l2.742-2.355l2.232,2.725l-2.549,2.057
			c0.504,0.938,0.756,1.957,0.756,3.059c0,1.266-0.322,2.385-0.967,3.357s-1.512,1.726-2.602,2.259s-2.279,0.8-3.568,0.8
			c-1.184,0-2.297-0.229-3.34-0.686c-0.34,0.223-0.51,0.533-0.51,0.932s0.161,0.706,0.483,0.923s0.75,0.375,1.283,0.475
			s1.327,0.208,2.382,0.325c0.211,0.035,0.413,0.062,0.606,0.079s0.372,0.038,0.536,0.062
			C177.787,77.969,178.956,78.212,179.911,78.511z M178.188,84.936c0.662-0.352,0.993-0.838,0.993-1.459
			c0-0.41-0.155-0.727-0.466-0.949s-0.741-0.387-1.292-0.492s-1.395-0.223-2.531-0.352c-0.234-0.023-0.41-0.047-0.527-0.07
			c-1.102-0.117-1.969-0.252-2.602-0.404l-0.896,1.477c0.117,0.902,0.595,1.591,1.433,2.065s1.907,0.712,3.208,0.712
			C176.633,85.463,177.526,85.287,178.188,84.936z M173.398,66.47c-0.445,0.275-0.782,0.647-1.011,1.116s-0.343,0.99-0.343,1.564
			c0,0.879,0.255,1.597,0.765,2.153s1.228,0.835,2.153,0.835s1.638-0.278,2.136-0.835s0.747-1.274,0.747-2.153
			s-0.255-1.614-0.765-2.206s-1.216-0.888-2.118-0.888C174.365,66.057,173.844,66.194,173.398,66.47z"/>
		<path fill="#1B2240" d="M187.425,59.641v-3.955h4.5v3.955H187.425z M187.53,80.523V62.963h4.254v17.561H187.53z"/>
		<path fill="#1B2240" d="M200.88,80.242c-0.826-0.422-1.459-1.022-1.898-1.802s-0.659-1.702-0.659-2.769v-9.123h-2.83v-3.586h2.9
			v-4.359l4.043-3.059v7.418h4.57v3.586h-4.57v8.367c0,0.785,0.196,1.345,0.589,1.679s0.905,0.501,1.538,0.501
			c0.41,0,0.832-0.062,1.266-0.185s0.826-0.272,1.178-0.448v3.885c-0.363,0.141-0.841,0.264-1.433,0.369s-1.169,0.158-1.731,0.158
			C202.693,80.875,201.706,80.664,200.88,80.242z"/>
		<path fill="#1B2240" d="M213.764,80.189c-1.002-0.457-1.796-1.119-2.382-1.986s-0.879-1.893-0.879-3.076
			c0-1.793,0.659-3.088,1.978-3.885s3.062-1.195,5.229-1.195h4.57c0-1.137-0.299-2.027-0.896-2.672s-1.453-0.967-2.566-0.967
			c-0.949,0-1.77,0.223-2.461,0.668s-1.248,1.025-1.67,1.74l-3.287-2.373c0.891-1.219,1.928-2.153,3.111-2.804
			s2.596-0.976,4.236-0.976c1.582,0,2.947,0.299,4.096,0.896s2.024,1.441,2.628,2.531s0.905,2.35,0.905,3.779v10.652h-3.533
			l-0.281-2.514c-0.715,1.043-1.523,1.781-2.426,2.215s-1.916,0.65-3.041,0.65C215.876,80.875,214.766,80.646,213.764,80.189z
			 M219.942,76.683c0.691-0.381,1.248-0.885,1.67-1.512s0.645-1.304,0.668-2.03h-4.324c-0.621,0-1.163,0.097-1.626,0.29
			s-0.817,0.454-1.063,0.782s-0.369,0.68-0.369,1.055c0,0.586,0.261,1.063,0.782,1.433s1.198,0.554,2.03,0.554
			C218.507,77.254,219.251,77.063,219.942,76.683z"/>
		<path fill="#1B2240" d="M232.554,80.049c-0.662-0.551-0.993-1.559-0.993-3.023v-21.34h4.289v20.162
			c0,0.41,0.126,0.709,0.378,0.896s0.63,0.281,1.134,0.281c0.258,0,0.615-0.035,1.072-0.105v3.604
			c-0.48,0.094-1.014,0.176-1.6,0.246s-1.084,0.105-1.494,0.105C234.145,80.875,233.216,80.6,232.554,80.049z"/>
		<path fill="#1B2240" d="M257.171,79.152c-1.805-1.148-3.152-2.692-4.043-4.632s-1.336-4.081-1.336-6.425s0.442-4.485,1.327-6.425
			s2.229-3.489,4.034-4.649s4.014-1.74,6.627-1.74c2.473,0,4.652,0.612,6.539,1.837s3.328,2.991,4.324,5.3l-4.166,1.652
			c-0.445-1.57-1.251-2.719-2.417-3.445s-2.604-1.09-4.315-1.09c-1.688,0-3.094,0.369-4.219,1.107s-1.957,1.737-2.496,2.997
			s-0.809,2.687-0.809,4.28c0,1.699,0.27,3.202,0.809,4.509s1.377,2.335,2.514,3.085s2.561,1.125,4.271,1.125
			c1.641,0,3.009-0.36,4.104-1.081s1.972-1.896,2.628-3.524l4.131,1.688c-0.973,2.309-2.405,4.078-4.298,5.309
			s-4.081,1.846-6.565,1.846C261.19,80.875,258.976,80.301,257.171,79.152z"/>
		<path fill="#1B2240" d="M280.259,80.189c-1.002-0.457-1.796-1.119-2.382-1.986s-0.879-1.893-0.879-3.076
			c0-1.793,0.659-3.088,1.978-3.885s3.062-1.195,5.229-1.195h4.57c0-1.137-0.299-2.027-0.896-2.672s-1.453-0.967-2.566-0.967
			c-0.949,0-1.77,0.223-2.461,0.668s-1.248,1.025-1.67,1.74l-3.287-2.373c0.891-1.219,1.928-2.153,3.111-2.804
			s2.596-0.976,4.236-0.976c1.582,0,2.947,0.299,4.096,0.896s2.024,1.441,2.628,2.531s0.905,2.35,0.905,3.779v10.652h-3.533
			l-0.281-2.514c-0.715,1.043-1.523,1.781-2.426,2.215s-1.916,0.65-3.041,0.65C282.371,80.875,281.261,80.646,280.259,80.189z
			 M286.438,76.683c0.691-0.381,1.248-0.885,1.67-1.512s0.645-1.304,0.668-2.03h-4.324c-0.621,0-1.163,0.097-1.626,0.29
			s-0.817,0.454-1.063,0.782s-0.369,0.68-0.369,1.055c0,0.586,0.261,1.063,0.782,1.433s1.198,0.554,2.03,0.554
			C285.002,77.254,285.746,77.063,286.438,76.683z"/>
		<path fill="#1B2240" d="M300.253,80.216c-1.02-0.439-1.878-1.031-2.575-1.775s-1.192-1.573-1.485-2.487l3.41-1.512
			c0.305,0.82,0.744,1.506,1.318,2.057s1.383,0.826,2.426,0.826c0.621,0,1.146-0.105,1.573-0.316s0.747-0.478,0.958-0.8
			s0.316-0.647,0.316-0.976c0-0.375-0.138-0.686-0.413-0.932s-0.618-0.442-1.028-0.589s-1.002-0.319-1.775-0.519
			c-1.16-0.305-2.112-0.615-2.856-0.932s-1.389-0.812-1.934-1.485s-0.817-1.579-0.817-2.716c0-1.184,0.299-2.177,0.896-2.979
			s1.392-1.4,2.382-1.793s2.071-0.589,3.243-0.589c1.5,0,2.818,0.319,3.955,0.958s2.039,1.556,2.707,2.751l-3.305,1.811
			c-0.363-0.645-0.82-1.16-1.371-1.547s-1.26-0.58-2.127-0.58c-0.691,0-1.242,0.129-1.652,0.387s-0.615,0.598-0.615,1.02
			c0,0.328,0.129,0.604,0.387,0.826s0.583,0.404,0.976,0.545s0.946,0.316,1.661,0.527c1.207,0.34,2.203,0.688,2.988,1.046
			s1.468,0.905,2.048,1.644s0.87,1.717,0.87,2.936c0,1.289-0.328,2.373-0.984,3.252s-1.506,1.532-2.549,1.96
			s-2.145,0.642-3.305,0.642C302.38,80.875,301.272,80.655,300.253,80.216z"/>
		<path fill="#1B2240" d="M315,55.686h4.359v9.316c0.656-0.809,1.433-1.4,2.329-1.775s1.813-0.563,2.751-0.563
			c1.465,0,2.684,0.343,3.656,1.028s1.688,1.582,2.145,2.689s0.686,2.306,0.686,3.595v10.547h-4.359V70.521
			c0-1.207-0.208-2.15-0.624-2.83s-1.146-1.02-2.188-1.02c-0.773,0-1.497,0.199-2.171,0.598s-1.213,0.923-1.617,1.573
			s-0.606,1.339-0.606,2.065v9.615H315V55.686z"/>
	</g>
</g>
<path fill="#1B2240" d="M49.218,89.235l-13.207,13.059c3.815,3.521,8.365,6.457,13.207,8.512V89.235z"/>
<path fill="#1B2240" d="M82.529,55.78L52.74,85.713v26.412c4.696,1.613,9.685,2.494,14.821,2.494c5.282,0,10.272-0.881,14.968-2.494
	V55.78z"/>
<path fill="#1B2240" d="M102.046,36.266L86.051,52.258v58.547c16.729-7.191,28.321-23.771,28.321-42.994
	C114.372,55.633,109.677,44.629,102.046,36.266z"/>
<path fill="#B7C8CF" d="M86.051,24.821V47.27l13.646-13.498C95.736,30.102,91.188,27.022,86.051,24.821z"/>
<path fill="#B7C8CF" d="M67.562,21.006c-5.136,0-10.125,0.879-14.821,2.494v57.225l29.789-29.934V23.5
	C77.833,21.885,72.844,21.006,67.562,21.006"/>
<path fill="#B7C8CF" d="M49.218,24.821C32.489,31.864,20.75,48.592,20.75,67.813c0,12.471,4.843,23.623,12.767,32.133l15.701-15.699
	V24.821z"/>
</svg>
